<svg t="1630139257743" class="icon" viewBox="0 0 1024 1024" version="1.1" xmlns="http://www.w3.org/2000/svg" p-id="14905" width="48" height="48"><path d="M709.352 733.796l-197.216 56.25-196.916-56.496L301.728 578l96.506 0 6.866 79.126 107.172 30.326 0.264 0.546 0.068 0 106.934-29.704L630.762 530 406 530l-8-100 241.292 0 8.792-102L280 328l-8-98 481.16 0L709.352 733.796z" p-id="14906"></path><path d="M128 64l69.872 806.602L511.538 960l314.49-89.41L896 64 128 64zM766.082 821.02l-254.524 72.374-253.734-72.338L197.792 128 826.2 128 766.082 821.02z" p-id="14907"></path></svg>