<svg t="1630143198688" class="icon" viewBox="0 0 1024 1024" version="1.1" xmlns="http://www.w3.org/2000/svg" p-id="20327" width="48" height="48"><path d="M64 64v896h896V64z m480 696c0 87.22-51.52 129.74-126.1 129.74-67.36 0-106.46-34.88-126.3-76.98l68.56-41.5c13.22 23.46 23.26 43.3 52.12 43.3 24 0 43.72-10.82 43.72-52.92V480h88z m198.7 127.74c-78.18 0-128.7-35.28-153.36-84L658 764c18 29.48 41.5 49.12 83 49.12 34.88 0 55.14-15.44 55.14-39.5 0-28.86-20.86-39.08-59.36-56l-21.04-9.04c-60.76-25.84-101.04-58.32-101.04-126.9 0-63.14 48.1-109.26 123.28-109.26 53.54 0 92 16.64 119.7 65.36L792 580c-14.44-25.86-30-36-54.12-36-24.66 0-40.3 15.64-40.3 36 0 25.26 15.64 35.48 51.72 51.12l21.04 9.02c71.58 30.68 111.88 62 111.88 132.32 0.02 75.8-59.52 115.28-139.52 115.28z" p-id="20328"></path></svg>