<svg t="1630665087849" class="icon" viewBox="0 0 1024 1024" version="1.1" xmlns="http://www.w3.org/2000/svg" p-id="4578" width="16" height="16"><path d="M221.002928 750.384295 221.002928 750.384295c-8.862855 8.847505-18.831904 15.504112-29.91738 19.917632-11.063987 4.439102-22.469758 6.65456-34.175357 6.65456-11.713786 0-23.26589-2.215458-34.663474-6.65456-11.390421-4.439102-21.508873-11.069103-30.370705-19.917632-17.724687-17.749246-26.586518-38.940894-26.586518-63.642482 0-24.653493 8.861832-45.89426 26.586518-63.58927l355.084181-352.23632c7.602142-8.872065 17.249873-15.205307 28.968775-18.99461 11.704576-3.813862 23.893176-5.386684 36.542264-4.736884 12.661368 0.600681 25.15082 3.466961 37.490869 8.525164 12.367679 5.058203 22.964014 12.016685 31.812543 20.888749l349.389482 346.552877c18.36937 17.71957 27.545356 38.935778 27.545356 63.58927 0 24.708751-9.175987 45.89426-27.545356 63.642482-8.851599 8.847505-18.823718 15.504112-29.891797 19.917632-11.06501 4.439102-22.487154 6.65456-34.174334 6.65456-11.713786 0-23.282263-2.215458-34.648125-6.65456-11.392468-4.41352-21.539572-11.069103-30.411637-19.917632L511.526721 463.635479 221.002928 750.384295 221.002928 750.384295 221.002928 750.384295zM221.002928 750.384295" p-id="4579" fill="#ffffff"></path></svg>