<?xml version="1.0" standalone="no"?>
<!DOCTYPE svg PUBLIC "-//W3C//DTD SVG 20010904//EN"
 "http://www.w3.org/TR/2001/REC-SVG-20010904/DTD/svg10.dtd">
<svg version="1.0" xmlns="http://www.w3.org/2000/svg"
 width="700.000000pt" height="700.000000pt" viewBox="0 0 700.000000 700.000000"
 preserveAspectRatio="xMidYMid meet">
<metadata>
Created by potrace 1.14, written by Peter Selinger 2001-2017
</metadata>
<g transform="translate(0.000000,700.000000) scale(0.100000,-0.100000)"
fill="#000000" stroke="none">
<path d="M3158 6995 c-2 -1 -34 -6 -73 -10 -69 -6 -122 -13 -154 -20 -9 -2
-50 -11 -91 -19 -494 -105 -970 -386 -1300 -766 -36 -41 -67 -77 -70 -80 -39
-38 -186 -264 -248 -380 -88 -165 -188 -428 -217 -575 -7 -31 -38 -211 -50
-280 -10 -60 -15 -1009 -5 -1015 4 -3 91 -5 192 -5 l185 1 0 -101 0 -101 -60
-19 c-34 -11 -76 -30 -94 -42 -19 -13 -39 -23 -44 -23 -6 0 -47 -37 -93 -82
-122 -123 -175 -243 -182 -408 -8 -213 85 -400 260 -524 55 -39 177 -96 205
-96 6 0 12 -8 12 -17 6 -65 8 -88 19 -159 47 -311 176 -620 368 -882 74 -102
93 -123 208 -238 242 -240 551 -419 872 -505 73 -20 83 -25 88 -48 22 -105 39
-164 66 -216 75 -149 188 -256 341 -324 90 -41 149 -53 262 -57 200 -5 374 65
512 208 128 132 191 292 197 495 1 34 4 64 7 66 2 2 40 23 84 46 295 157 567
413 745 700 175 283 291 646 299 938 1 28 4 31 24 27 12 -3 58 -7 102 -9 401
-15 705 349 620 744 -27 123 -109 257 -209 337 -47 39 -162 104 -182 104 -5 0
-9 245 -9 557 0 489 -4 652 -20 730 -2 11 -6 38 -9 59 -47 294 -191 653 -372
924 -266 400 -666 725 -1104 898 -111 44 -292 100 -379 117 -42 8 -85 16 -96
19 -11 2 -45 7 -75 11 -30 4 -64 9 -75 12 -22 5 -451 13 -457 8z"/>
</g>
</svg>
